<mxfile host="Electron" agent="Mozilla/5.0 (X11; Linux x86_64) AppleWebKit/537.36 (KHTML, like Gecko) draw.io/27.0.9 Chrome/134.0.6998.205 Electron/35.4.0 Safari/537.36" version="27.0.9">
  <diagram name="Page-1" id="Zivl_L8bTSGlL97lE0Xk">
    <mxGraphModel dx="2406" dy="752" grid="1" gridSize="10" guides="1" tooltips="1" connect="1" arrows="1" fold="1" page="1" pageScale="1" pageWidth="850" pageHeight="1100" math="0" shadow="0">
      <root>
        <mxCell id="0" />
        <mxCell id="1" parent="0" />
        <mxCell id="3P45h-ZClekzw_P2OGKK-7" value="Camada de Integração" style="shape=folder;fontStyle=1;tabWidth=150;tabHeight=20;tabPosition=left;html=1;boundedLbl=1;labelInHeader=1;container=1;collapsible=0;recursiveResize=0;whiteSpace=wrap;" vertex="1" parent="1">
          <mxGeometry x="-50" y="340" width="270" height="250" as="geometry" />
        </mxCell>
        <mxCell id="3P45h-ZClekzw_P2OGKK-8" value="&amp;lt;&amp;lt;identity provider&amp;gt;&amp;gt;&amp;nbsp;&lt;div&gt;Autenticação Institucional&lt;/div&gt;" style="shape=module;align=left;spacingLeft=20;align=center;verticalAlign=top;whiteSpace=wrap;html=1;" vertex="1" parent="3P45h-ZClekzw_P2OGKK-7">
          <mxGeometry x="30" y="40" width="170" height="80" as="geometry" />
        </mxCell>
        <mxCell id="3P45h-ZClekzw_P2OGKK-11" value="&amp;lt;&amp;lt;external system&amp;gt;&amp;gt;&lt;div&gt;SIGA&lt;/div&gt;" style="shape=module;align=left;spacingLeft=20;align=center;verticalAlign=top;whiteSpace=wrap;html=1;" vertex="1" parent="3P45h-ZClekzw_P2OGKK-7">
          <mxGeometry x="30" y="145" width="170" height="80" as="geometry" />
        </mxCell>
        <mxCell id="3P45h-ZClekzw_P2OGKK-106" value="8080" style="fontStyle=0;labelPosition=right;verticalLabelPosition=middle;align=left;verticalAlign=middle;spacingLeft=2;" vertex="1" parent="3P45h-ZClekzw_P2OGKK-7">
          <mxGeometry x="200" y="80" width="30" height="30" as="geometry" />
        </mxCell>
        <mxCell id="3P45h-ZClekzw_P2OGKK-107" value="8080" style="fontStyle=0;labelPosition=right;verticalLabelPosition=middle;align=left;verticalAlign=middle;spacingLeft=2;" vertex="1" parent="3P45h-ZClekzw_P2OGKK-7">
          <mxGeometry x="200" y="190" width="30" height="30" as="geometry" />
        </mxCell>
        <mxCell id="3P45h-ZClekzw_P2OGKK-13" value="Web browser" style="shape=module;align=left;spacingLeft=20;align=center;verticalAlign=top;whiteSpace=wrap;html=1;" vertex="1" parent="1">
          <mxGeometry x="35" y="163" width="100" height="50" as="geometry" />
        </mxCell>
        <mxCell id="3P45h-ZClekzw_P2OGKK-71" value="&amp;lt;&amp;lt;system&amp;gt;&amp;gt;&amp;nbsp;&amp;nbsp;MonGe" style="shape=folder;fontStyle=1;tabWidth=150;tabHeight=20;tabPosition=left;html=1;boundedLbl=1;labelInHeader=1;container=0;collapsible=0;recursiveResize=0;whiteSpace=wrap;" vertex="1" parent="1">
          <mxGeometry x="240" y="50" width="420" height="540" as="geometry" />
        </mxCell>
        <mxCell id="3P45h-ZClekzw_P2OGKK-3" value="&amp;lt;&amp;lt;subsystem&amp;gt;&amp;gt;&amp;nbsp;&amp;nbsp;Camada de Apresentação" style="shape=folder;fontStyle=1;tabWidth=250;tabHeight=20;tabPosition=left;html=1;boundedLbl=1;labelInHeader=1;container=1;collapsible=0;recursiveResize=0;whiteSpace=wrap;flipV=0;flipH=0;direction=east;" vertex="1" parent="1">
          <mxGeometry x="270" y="103" width="310" height="130" as="geometry" />
        </mxCell>
        <mxCell id="3P45h-ZClekzw_P2OGKK-1" value="Frontend&lt;div&gt;Application&lt;/div&gt;" style="shape=module;align=left;spacingLeft=20;align=center;verticalAlign=top;whiteSpace=wrap;html=1;" vertex="1" parent="3P45h-ZClekzw_P2OGKK-3">
          <mxGeometry x="105" y="50" width="100" height="50" as="geometry" />
        </mxCell>
        <mxCell id="3P45h-ZClekzw_P2OGKK-90" value="" style="ellipse;whiteSpace=wrap;html=1;align=center;aspect=fixed;fillColor=none;strokeColor=none;resizable=0;perimeter=centerPerimeter;rotatable=0;allowArrows=0;points=[];outlineConnect=1;" vertex="1" parent="3P45h-ZClekzw_P2OGKK-3">
          <mxGeometry x="50" y="77" width="10" height="10" as="geometry" />
        </mxCell>
        <mxCell id="3P45h-ZClekzw_P2OGKK-5" value="&amp;lt;&amp;lt;subsystem&amp;gt;&amp;gt;&amp;nbsp; Camada de Negócio" style="shape=folder;fontStyle=1;tabWidth=220;tabHeight=20;tabPosition=left;html=1;boundedLbl=1;labelInHeader=1;container=1;collapsible=0;recursiveResize=0;whiteSpace=wrap;" vertex="1" parent="1">
          <mxGeometry x="270" y="279.38" width="310" height="125" as="geometry" />
        </mxCell>
        <mxCell id="3P45h-ZClekzw_P2OGKK-6" value="Backend Application" style="shape=module;align=left;spacingLeft=20;align=center;verticalAlign=top;whiteSpace=wrap;html=1;" vertex="1" parent="3P45h-ZClekzw_P2OGKK-5">
          <mxGeometry x="105" y="44.62" width="100" height="50" as="geometry" />
        </mxCell>
        <mxCell id="3P45h-ZClekzw_P2OGKK-15" value="&amp;lt;&amp;lt;subsystem&amp;gt;&amp;gt;&amp;nbsp; Camada de Dados" style="shape=folder;fontStyle=1;tabWidth=220;tabHeight=20;tabPosition=left;html=1;boundedLbl=1;labelInHeader=1;container=1;collapsible=0;recursiveResize=0;whiteSpace=wrap;" vertex="1" parent="1">
          <mxGeometry x="270" y="440" width="310" height="120" as="geometry" />
        </mxCell>
        <mxCell id="3P45h-ZClekzw_P2OGKK-16" value="Banco de dados" style="shape=module;align=left;spacingLeft=20;align=center;verticalAlign=top;whiteSpace=wrap;html=1;" vertex="1" parent="3P45h-ZClekzw_P2OGKK-15">
          <mxGeometry x="105" y="50" width="100" height="50" as="geometry" />
        </mxCell>
        <mxCell id="3P45h-ZClekzw_P2OGKK-52" value="80" style="fontStyle=0;labelPosition=right;verticalLabelPosition=middle;align=left;verticalAlign=middle;spacingLeft=2;" vertex="1" parent="1">
          <mxGeometry x="580" y="190" width="30" height="30" as="geometry" />
        </mxCell>
        <mxCell id="3P45h-ZClekzw_P2OGKK-47" value="8080" style="fontStyle=0;labelPosition=right;verticalLabelPosition=middle;align=left;verticalAlign=middle;spacingLeft=2;" vertex="1" parent="1">
          <mxGeometry x="580" y="360" width="30" height="30" as="geometry" />
        </mxCell>
        <mxCell id="3P45h-ZClekzw_P2OGKK-53" value="5432" style="fontStyle=0;labelPosition=right;verticalLabelPosition=middle;align=left;verticalAlign=middle;spacingLeft=2;" vertex="1" parent="1">
          <mxGeometry x="580" y="520" width="30" height="30" as="geometry" />
        </mxCell>
        <mxCell id="3P45h-ZClekzw_P2OGKK-91" value="" style="rounded=0;orthogonalLoop=1;jettySize=auto;html=1;endArrow=halfCircle;endFill=0;endSize=6;strokeWidth=1;sketch=0;" edge="1" target="3P45h-ZClekzw_P2OGKK-93" parent="1" source="3P45h-ZClekzw_P2OGKK-1">
          <mxGeometry relative="1" as="geometry">
            <mxPoint x="650" y="268" as="sourcePoint" />
            <Array as="points">
              <mxPoint x="555" y="180" />
            </Array>
          </mxGeometry>
        </mxCell>
        <mxCell id="3P45h-ZClekzw_P2OGKK-92" value="" style="rounded=0;orthogonalLoop=1;jettySize=auto;html=1;endArrow=oval;endFill=0;sketch=0;sourcePerimeterSpacing=0;targetPerimeterSpacing=0;endSize=10;exitX=1;exitY=0.25;exitDx=0;exitDy=0;" edge="1" target="3P45h-ZClekzw_P2OGKK-93" parent="1" source="3P45h-ZClekzw_P2OGKK-6">
          <mxGeometry relative="1" as="geometry">
            <mxPoint x="610" y="268" as="sourcePoint" />
            <Array as="points">
              <mxPoint x="555" y="337" />
            </Array>
          </mxGeometry>
        </mxCell>
        <mxCell id="3P45h-ZClekzw_P2OGKK-100" value="REST" style="edgeLabel;html=1;align=center;verticalAlign=middle;resizable=0;points=[];" vertex="1" connectable="0" parent="3P45h-ZClekzw_P2OGKK-92">
          <mxGeometry x="-0.5134" y="3" relative="1" as="geometry">
            <mxPoint x="58" y="-54" as="offset" />
          </mxGeometry>
        </mxCell>
        <mxCell id="3P45h-ZClekzw_P2OGKK-93" value="" style="ellipse;whiteSpace=wrap;html=1;align=center;aspect=fixed;fillColor=none;strokeColor=none;resizable=0;perimeter=centerPerimeter;rotatable=0;allowArrows=0;points=[];outlineConnect=1;" vertex="1" parent="1">
          <mxGeometry x="550" y="260" width="10" height="10" as="geometry" />
        </mxCell>
        <mxCell id="3P45h-ZClekzw_P2OGKK-97" value="" style="rounded=0;orthogonalLoop=1;jettySize=auto;html=1;endArrow=halfCircle;endFill=0;endSize=6;strokeWidth=1;sketch=0;exitX=1;exitY=0.75;exitDx=0;exitDy=0;" edge="1" target="3P45h-ZClekzw_P2OGKK-99" parent="1" source="3P45h-ZClekzw_P2OGKK-6">
          <mxGeometry relative="1" as="geometry">
            <mxPoint x="575" y="435" as="sourcePoint" />
            <Array as="points">
              <mxPoint x="555" y="362" />
            </Array>
          </mxGeometry>
        </mxCell>
        <mxCell id="3P45h-ZClekzw_P2OGKK-98" value="" style="rounded=0;orthogonalLoop=1;jettySize=auto;html=1;endArrow=oval;endFill=0;sketch=0;sourcePerimeterSpacing=0;targetPerimeterSpacing=0;endSize=10;exitX=1;exitY=0.25;exitDx=0;exitDy=0;" edge="1" target="3P45h-ZClekzw_P2OGKK-99" parent="1" source="3P45h-ZClekzw_P2OGKK-16">
          <mxGeometry relative="1" as="geometry">
            <mxPoint x="535" y="435" as="sourcePoint" />
            <Array as="points">
              <mxPoint x="555" y="503" />
            </Array>
          </mxGeometry>
        </mxCell>
        <mxCell id="3P45h-ZClekzw_P2OGKK-101" value="SOCKET" style="edgeLabel;html=1;align=center;verticalAlign=middle;resizable=0;points=[];" vertex="1" connectable="0" parent="3P45h-ZClekzw_P2OGKK-98">
          <mxGeometry x="-0.3648" relative="1" as="geometry">
            <mxPoint x="58" y="-53" as="offset" />
          </mxGeometry>
        </mxCell>
        <mxCell id="3P45h-ZClekzw_P2OGKK-99" value="" style="ellipse;whiteSpace=wrap;html=1;align=center;aspect=fixed;fillColor=none;strokeColor=none;resizable=0;perimeter=centerPerimeter;rotatable=0;allowArrows=0;points=[];outlineConnect=1;" vertex="1" parent="1">
          <mxGeometry x="550" y="430" width="10" height="10" as="geometry" />
        </mxCell>
        <mxCell id="3P45h-ZClekzw_P2OGKK-102" value="" style="rounded=0;orthogonalLoop=1;jettySize=auto;html=1;endArrow=halfCircle;endFill=0;endSize=6;strokeWidth=1;sketch=0;" edge="1" target="3P45h-ZClekzw_P2OGKK-104" parent="1" source="3P45h-ZClekzw_P2OGKK-13">
          <mxGeometry relative="1" as="geometry">
            <mxPoint x="220" y="188" as="sourcePoint" />
          </mxGeometry>
        </mxCell>
        <mxCell id="3P45h-ZClekzw_P2OGKK-103" value="" style="rounded=0;orthogonalLoop=1;jettySize=auto;html=1;endArrow=oval;endFill=0;sketch=0;sourcePerimeterSpacing=0;targetPerimeterSpacing=0;endSize=10;exitX=0;exitY=0;exitDx=0;exitDy=35;exitPerimeter=0;" edge="1" target="3P45h-ZClekzw_P2OGKK-104" parent="1" source="3P45h-ZClekzw_P2OGKK-1">
          <mxGeometry relative="1" as="geometry">
            <mxPoint x="180" y="188" as="sourcePoint" />
          </mxGeometry>
        </mxCell>
        <mxCell id="3P45h-ZClekzw_P2OGKK-105" value="HTTP" style="edgeLabel;html=1;align=center;verticalAlign=middle;resizable=0;points=[];" vertex="1" connectable="0" parent="3P45h-ZClekzw_P2OGKK-103">
          <mxGeometry x="-0.36" y="2" relative="1" as="geometry">
            <mxPoint x="-99" y="-12" as="offset" />
          </mxGeometry>
        </mxCell>
        <mxCell id="3P45h-ZClekzw_P2OGKK-104" value="" style="ellipse;whiteSpace=wrap;html=1;align=center;aspect=fixed;fillColor=none;strokeColor=none;resizable=0;perimeter=centerPerimeter;rotatable=0;allowArrows=0;points=[];outlineConnect=1;" vertex="1" parent="1">
          <mxGeometry x="195" y="183" width="10" height="10" as="geometry" />
        </mxCell>
        <mxCell id="3P45h-ZClekzw_P2OGKK-111" value="" style="rounded=0;orthogonalLoop=1;jettySize=auto;html=1;endArrow=halfCircle;endFill=0;endSize=6;strokeWidth=1;sketch=0;exitX=1;exitY=0.75;exitDx=0;exitDy=0;" edge="1" target="3P45h-ZClekzw_P2OGKK-113" parent="1" source="3P45h-ZClekzw_P2OGKK-13">
          <mxGeometry relative="1" as="geometry">
            <mxPoint x="220" y="245" as="sourcePoint" />
            <Array as="points">
              <mxPoint x="200" y="201" />
            </Array>
          </mxGeometry>
        </mxCell>
        <mxCell id="3P45h-ZClekzw_P2OGKK-112" value="" style="rounded=0;orthogonalLoop=1;jettySize=auto;html=1;endArrow=oval;endFill=0;sketch=0;sourcePerimeterSpacing=0;targetPerimeterSpacing=0;endSize=10;exitX=1;exitY=0.25;exitDx=0;exitDy=0;" edge="1" target="3P45h-ZClekzw_P2OGKK-113" parent="1" source="3P45h-ZClekzw_P2OGKK-8">
          <mxGeometry relative="1" as="geometry">
            <mxPoint x="180" y="245" as="sourcePoint" />
            <Array as="points">
              <mxPoint x="200" y="400" />
            </Array>
          </mxGeometry>
        </mxCell>
        <mxCell id="3P45h-ZClekzw_P2OGKK-114" value="OAuth / OIDC" style="edgeLabel;html=1;align=center;verticalAlign=middle;resizable=0;points=[];" vertex="1" connectable="0" parent="3P45h-ZClekzw_P2OGKK-112">
          <mxGeometry x="0.76" y="2" relative="1" as="geometry">
            <mxPoint x="-38" y="-5" as="offset" />
          </mxGeometry>
        </mxCell>
        <mxCell id="3P45h-ZClekzw_P2OGKK-113" value="" style="ellipse;whiteSpace=wrap;html=1;align=center;aspect=fixed;fillColor=none;strokeColor=none;resizable=0;perimeter=centerPerimeter;rotatable=0;allowArrows=0;points=[];outlineConnect=1;" vertex="1" parent="1">
          <mxGeometry x="195" y="240" width="10" height="10" as="geometry" />
        </mxCell>
        <mxCell id="3P45h-ZClekzw_P2OGKK-125" value="" style="rounded=0;orthogonalLoop=1;jettySize=auto;html=1;endArrow=halfCircle;endFill=0;endSize=6;strokeWidth=1;sketch=0;exitX=0;exitY=0;exitDx=0;exitDy=35;exitPerimeter=0;" edge="1" parent="1" source="3P45h-ZClekzw_P2OGKK-6" target="3P45h-ZClekzw_P2OGKK-123">
          <mxGeometry relative="1" as="geometry">
            <mxPoint x="375" y="359" as="sourcePoint" />
            <mxPoint x="200" y="505" as="targetPoint" />
            <Array as="points">
              <mxPoint x="250" y="360" />
              <mxPoint x="250" y="505" />
            </Array>
          </mxGeometry>
        </mxCell>
        <mxCell id="3P45h-ZClekzw_P2OGKK-123" value="" style="ellipse;whiteSpace=wrap;html=1;align=center;aspect=fixed;fillColor=none;strokeColor=none;resizable=0;perimeter=centerPerimeter;rotatable=0;allowArrows=0;points=[];outlineConnect=1;" vertex="1" parent="1">
          <mxGeometry x="195" y="500" width="10" height="10" as="geometry" />
        </mxCell>
        <mxCell id="3P45h-ZClekzw_P2OGKK-122" value="" style="rounded=0;orthogonalLoop=1;jettySize=auto;html=1;endArrow=oval;endFill=0;sketch=0;sourcePerimeterSpacing=0;targetPerimeterSpacing=0;endSize=10;exitX=1;exitY=0.25;exitDx=0;exitDy=0;" edge="1" target="3P45h-ZClekzw_P2OGKK-123" parent="1" source="3P45h-ZClekzw_P2OGKK-11">
          <mxGeometry relative="1" as="geometry">
            <mxPoint x="165" y="505" as="sourcePoint" />
          </mxGeometry>
        </mxCell>
        <mxCell id="3P45h-ZClekzw_P2OGKK-124" value="REST" style="edgeLabel;html=1;align=center;verticalAlign=middle;resizable=0;points=[];" vertex="1" connectable="0" parent="3P45h-ZClekzw_P2OGKK-122">
          <mxGeometry x="-0.0286" y="3" relative="1" as="geometry">
            <mxPoint x="6" y="-12" as="offset" />
          </mxGeometry>
        </mxCell>
      </root>
    </mxGraphModel>
  </diagram>
</mxfile>
